<?xml version="1.0" encoding="utf-8"?>
<!-- Generator: Adobe Illustrator 23.1.0, SVG Export Plug-In . SVG Version: 6.00 Build 0)  -->
<svg version="1.1" id="Layer_1" xmlns="http://www.w3.org/2000/svg" xmlns:xlink="http://www.w3.org/1999/xlink" x="0px" y="0px"
	 viewBox="0 0 369.43 147.69" style="enable-background:new 0 0 369.43 147.69;" xml:space="preserve">
<style type="text/css">
	.st0{fill:#FFFFFF;}
</style>
<g>
	<path class="st0" d="M86.43,43.71c2.21,0.33,4.51,0.82,6.64,1.72c7.13,2.87,10.25,9.43,8.86,17.71c-0.82,4.76-2.79,9.1-5.33,13.12
		c-3.28,5.33-7.38,9.92-12.05,13.86c-6.31,5.41-13.12,9.92-20.5,13.53c-1.56,0.9-3.44,1.56-5.25,1.8c-1.23,0.16-2.54-0.33-3.69-0.9
		c-0.49-0.41-0.98-1.72-0.98-2.54c0-1.23,0.9-1.8,1.97-2.05c0.33-0.08,0.66-0.08,1.07-0.08c3.28-0.08,3.77-0.57,4.02-4.18
		c0.9-13.45,1.89-26.81,3.69-40.18c0.16-0.66,0.08-1.31,0.08-2.46c-2.54,1.48-4.59,3.2-6.31,5.58c-0.16,0.33-0.08,1.07-0.08,1.64
		c-0.08,1.15-0.57,2.05-1.56,2.05c-0.74,0-1.64-0.41-2.21-1.07c-0.98-1.15-0.82-2.62-0.08-3.85c1.07-1.64,2.21-3.28,3.69-4.51
		c1.89-1.8,4.1-3.03,6.07-4.59c0.57-0.41,1.31-1.07,1.64-1.72c1.39-3.69,2.38-3.94,5.17-1.39C76.26,43.71,81.27,42.97,86.43,43.71z
		 M68.72,94.63c3.2-1.97,6.48-3.94,9.43-6.23c5.74-4.26,10.82-9.35,14.6-15.91c1.56-2.71,2.95-5.82,3.85-8.94
		c2.13-7.54-0.41-12.46-7.22-14.51c-3.44-1.15-7.05-1.31-10.66-0.9c-2.62,0.33-5.25,0.82-7.71,2.05
		c-1.39,15.01-2.71,29.93-4.18,45.18C67.74,95.04,68.31,94.96,68.72,94.63z"/>
	<path class="st0" d="M111.2,86.93c4.43-1.48,6.89-3.61,10.17-6.48c2.79-2.62,4.26-0.08,2.46,2.21c-3.12,3.94-11.32,9.43-16.65,9.18
		c-5.08-0.49-7.71-4.35-6.31-9.18c0.57-1.89,1.48-3.53,2.71-4.92c2.3-2.71,8.2-7.05,11.32-3.77c3.77,3.77-4.84,12.14-9.35,10.33
		C104.96,88.57,108.33,87.91,111.2,86.93z M107.34,81.02c1.97-0.49,3.61-1.56,4.67-4.35C109.56,77.74,108.08,79.05,107.34,81.02z"/>
	<path class="st0" d="M179.91,66.34c-5.58,8.69-11.07,17.47-16.73,26.24c-1.97,3.12-4.26,6.07-6.48,8.94
		c-1.23,1.56-2.62,2.79-4.18,3.61c-3.12,2.05-7.13,1.07-8.53-4.59c-0.82-3.61-0.74-7.38-0.25-11.07
		c2.21-14.51,6.72-27.88,12.96-40.34c0.74-1.56,1.72-3.03,2.79-4.26c2.3-2.46,4.51-1.89,5.82,1.56c0.16,0.33,0.33,0.57,0.41,0.9
		c0.08,1.15,0.49,2.38,0.16,3.2c-0.41,1.48-1.56,1.39-2.62,0.9c-0.16-0.08-0.41,0-0.66,0.16c-0.33,0.49-0.57,1.07-0.82,1.64
		c-4.84,11.89-8.53,24.35-10.82,37.39c-0.41,2.3-0.66,4.51-0.16,7.46c1.23-1.23,2.3-1.97,3.03-3.03c2.71-3.44,5.25-6.81,7.79-10.41
		c5.41-7.95,10.91-15.99,16.32-23.86c0.9-1.23,1.72-2.54,2.62-3.61c1.07-1.31,2.3-2.71,3.94-2.05c1.8,0.9,2.05,2.87,2.13,4.92
		c0.08,3.53,0,7.05,0.16,10.58c0.25,3.36,0.41,6.81,1.23,9.92c0.74,3.12,1.97,6.4,3.53,9.02c2.71,4.67,6.31,5.25,10.25,2.38
		c3.2-2.38,5.17-5.99,6.72-10.09c2.71-7.3,4.76-14.92,6.31-22.71c0.49-2.87,1.23-5.66,0.49-8.69c-0.08-0.82,0.49-2.46,1.07-2.87
		c0.82-0.49,1.97-0.41,2.87,0c1.31,0.74,1.97,2.3,1.89,4.02c0,2.21,0,4.51-0.33,6.56c-1.39,8.69-3.69,16.97-6.81,24.76
		c-1.31,3.44-3.03,6.72-5.08,9.51c-1.72,2.3-4.02,4.26-6.31,5.49c-5.25,3.03-10.41,1.56-14.35-3.94
		c-3.94-5.41-5.41-12.22-5.82-19.27c-0.25-3.44,0-6.97,0-10.5c-0.25-0.16-0.57-0.25-0.82-0.41
		C181.06,64.62,180.4,65.44,179.91,66.34z"/>
	<path class="st0" d="M230.42,86.93c4.43-1.48,6.89-3.61,10.17-6.48c2.79-2.62,4.26-0.08,2.46,2.21
		c-3.12,3.94-11.32,9.43-16.65,9.18c-5.08-0.49-7.71-4.35-6.31-9.18c0.57-1.89,1.48-3.53,2.71-4.92c2.3-2.71,8.2-7.05,11.32-3.77
		c3.77,3.77-4.84,12.14-9.35,10.33C224.19,88.57,227.55,87.91,230.42,86.93z M226.57,81.02c1.97-0.49,3.61-1.56,4.67-4.35
		C228.78,77.74,227.31,79.05,226.57,81.02z"/>
	<path class="st0" d="M239.19,88.07c-0.82-5.74,3.03-13.78,8.2-16.48c1.31-0.66,2.79-0.98,4.26-0.98c2.3,0.08,4.18,1.97,4.1,4.1
		c-0.08,0.74-0.57,1.64-1.07,2.05c-0.74,0.49-1.64,0.08-2.13-0.74c-0.25-0.25-0.49-0.66-0.66-0.9c-4.1,0.66-9.84,10.82-7.22,13.2
		c2.95-0.57,6.07-4.02,7.54-6.56c0.41-0.66,0.98-1.31,1.72-1.64c2.05-1.07,4.1,0.33,4.18,2.71c0,2.21-0.16,4.43-0.33,6.64
		c-0.9,8.04-4.28,13.58-7.07,21.04c-0.41,0.98-0.9,2.05-1.72,2.95c-0.66,0.66-1.64,1.31-2.62,1.64c-1.15,0.33-2.3,0.08-3.12-0.9
		c-0.82-1.07-0.49-2.05-0.08-3.2c2.79-7.05,7.07-15.71,8.54-23.58C246.9,91.19,240.51,94.72,239.19,88.07z"/>
	<path class="st0" d="M271.17,79.55c0.98-1.72,2.46-4.43,4.59-3.94c1.31,0.49,1.48,1.89,1.64,3.12c0.08,1.23,0.25,2.54,0.41,3.77
		c0.33,3.12,2.21,5.99,4.67-0.74c0.82-1.89,1.48-3.53,2.46-5.41c2.79-4.67,5-0.82,4.1,1.48c-1.15,3.12-2.46,6.4-3.85,9.59
		c-0.33,0.66-0.82,1.31-1.31,1.8c-2.95,3.44-6.56,2.95-8.61-1.07c-0.74-1.39-1.15-3.03-1.8-4.92c-1.07,1.89-2.38,3.53-3.69,5.08
		c-1.97,2.21-4.1,5.25-7.22,3.53c-1.64-0.98-2.21-2.71-2.21-4.59c0-4.51,1.15-8.86,2.87-12.87c0.25-0.66,0.82-1.31,1.39-1.72
		c1.64-0.98,3.53,0.08,3.53,2.3c0,0.74-0.25,1.56-0.57,2.46c-0.98,1.97-3.69,12.38,0.74,6.56
		C269.29,82.58,270.19,81.02,271.17,79.55z"/>
	<path class="st0" d="M302.99,80.28c1.23-1.07,3.28,0.08,2.3,1.8c-0.25,0.49-0.57,0.98-0.98,1.48c-2.13,2.3-4.1,4.76-6.31,7.05
		c-0.66,0.66-1.39,1.15-2.21,1.56c-3.12,1.64-6.07,0.25-6.64-3.2c-0.57-3.53,0.41-7.95,1.8-11.07c0.49-1.39,1.72-1.97,2.95-1.56
		c1.23,0.41,1.8,1.31,1.64,2.79c-0.08,1.72-0.57,4.51-0.82,6.23c-0.16,0.82-0.16,2.05-0.33,3.53
		C295.45,89.8,300.28,82.66,302.99,80.28z M297,73.07c-0.25,0.49-0.98,1.23-1.56,1.31c-1.23,0.08-2.79-1.64-2.71-2.79
		c0.16-0.9,0.9-1.56,1.89-1.48C295.69,70.2,297.33,72.17,297,73.07z"/>
	<path class="st0" d="M295.43,108.05c2.87-7.79,5.59-13.91,6.58-22.35c0.25-1.97,0.33-4.02,0.49-5.9c0.08-0.74,0.16-1.39,0.41-1.97
		c0.41-1.07,1.15-1.56,2.3-1.48c1.15,0.08,1.72,0.82,1.97,1.89c0,0.33,0,0.66,0.08,0.98c0.41,12.05-2.64,21.78-7.15,33.01
		c-0.66,1.64-1.64,3.2-2.62,4.76c-0.49,0.82-1.23,1.64-2.05,2.3c-2.3,1.64-5,0.82-5.9-1.89c-0.41-1.15-0.57-2.46-0.49-3.69
		c0.41-5,1.39-9.84,3.2-14.51c0.33-0.82,0.66-1.64,1.23-2.38c0.82-1.23,1.89-1.56,2.87-0.9c1.15,0.74,0.9,1.72,0.49,2.79
		c-0.98,3.28-1.8,6.64-2.62,9.84c-0.16,0.57,0,1.07,0,1.64c0.08,0,0.16,0,0.25,0.08C294.69,109.44,295.1,108.79,295.43,108.05z
		 M304.96,73.89c-1.07-0.08-1.97-0.98-1.89-2.13c0-1.31,0.98-2.3,2.13-2.21c0.98,0,1.89,1.07,1.89,2.38
		C307.09,72.9,306.1,73.89,304.96,73.89z"/>
	<path class="st0" d="M325.78,79.14c1.89,0,1.8,2.87-0.33,2.87c-3.85-0.74-5.74,2.46-7.95,5.17c4.67-0.66,8.45-0.74,11.56,1.8
		c1.89,1.56-0.33,3.77-2.13,2.95c-4.76-2.05-8.36-1.31-13.78,0.08c-2.38,0.49-4.02-0.41-3.12-2.95c1.8-2.46,4.26-4.43,6.15-6.56
		c-1.48,0-2.38,0-3.28,0c-2.38-0.25-2.13-3.03,0.16-3.03c1.15-0.08,2.62-0.08,3.85,0c1.23,0.08,2.38-0.41,2.95-1.48
		c1.23-1.97,2.71-3.61,3.44-6.07c-2.87,0.82-5,2.05-6.56,4.18c-0.98,1.48-2.05,1.97-3.03,1.15c-1.07-0.49-1.23-1.72-0.08-3.03
		c2.46-3.2,5.74-5.41,9.51-6.23c3.44-0.82,5.82,1.39,4.43,4.51c-0.98,2.3-2.3,4.35-3.69,6.48
		C324.47,79.05,325.29,79.14,325.78,79.14z"/>
	<path class="st0" d="M340.3,86.93c4.43-1.48,6.89-3.61,10.17-6.48c2.79-2.62,4.26-0.08,2.46,2.21c-3.12,3.94-11.32,9.43-16.65,9.18
		c-5.08-0.49-7.71-4.35-6.31-9.18c0.57-1.89,1.48-3.53,2.71-4.92c2.3-2.71,8.2-7.05,11.32-3.77c3.77,3.77-4.84,12.14-9.35,10.33
		C334.07,88.57,337.43,87.91,340.3,86.93z M336.44,81.02c1.97-0.49,3.61-1.56,4.67-4.35C338.66,77.74,337.18,79.05,336.44,81.02z"/>
	<path class="st0" d="M359.24,75.53c1.31-1.07,2.54-2.3,3.94-3.03c1.89-0.98,3.44-0.74,4.76,0.57c1.15,1.31,1.23,2.87,0.57,4.76
		c-0.25,0.82-0.9,1.39-1.97,1.31c-0.74-0.08-1.07-0.66-0.98-1.48c0.08-0.41,0.16-0.9,0.08-1.31c-0.16-1.07-0.82-1.31-1.97-0.66
		c-0.66,0.41-1.48,1.07-2.05,1.72c-3.36,3.44-6.15,7.79-6.15,12.38c0,1.64-0.98,3.12-2.54,3.44c-1.39,0.33-2.62-0.49-2.79-2.13
		c-0.41-2.95,0.08-13.86,2.79-18.78c0.66-1.15,1.89-1.72,2.95-1.64c1.15,0.16,1.8,0.9,1.64,2.38c-0.08,1.39-0.33,2.79-0.57,4.67
		C358.01,76.68,358.58,76.02,359.24,75.53z"/>
</g>
<g>
	<path class="st0" d="M148.18,128.37c2.63,0,4.78,1.41,5.58,3.84h-2.74c-0.56-1.14-1.58-1.7-2.86-1.7c-2.07,0-3.55,1.51-3.55,3.93
		c0,2.4,1.48,3.93,3.55,3.93c1.28,0,2.29-0.56,2.86-1.72h2.74c-0.8,2.45-2.94,3.84-5.58,3.84c-3.42,0-6.02-2.5-6.02-6.05
		S144.76,128.37,148.18,128.37z"/>
	<path class="st0" d="M157.15,127.81h2.38v4.33c0.61-0.8,1.67-1.31,2.92-1.31c2.12,0,3.67,1.43,3.67,4.03v5.52h-2.38v-5.2
		c0-1.51-0.83-2.33-2.09-2.33c-1.29,0-2.12,0.82-2.12,2.33v5.2h-2.38V127.81z"/>
	<path class="st0" d="M172.13,140.38h-2.38v-9.42h2.38v1.46c0.59-0.97,1.58-1.6,2.89-1.6v2.5h-0.63c-1.41,0-2.26,0.54-2.26,2.36
		V140.38z"/>
	<path class="st0" d="M177.72,128.45c0-0.78,0.61-1.39,1.46-1.39c0.83,0,1.46,0.61,1.46,1.39c0,0.78-0.63,1.39-1.46,1.39
		C178.33,129.85,177.72,129.23,177.72,128.45z M177.98,130.97h2.38v9.42h-2.38V130.97z"/>
	<path class="st0" d="M187.67,140.54c-2.36,0-4.01-1.38-4.11-3.13h2.4c0.08,0.71,0.75,1.26,1.7,1.26c0.93,0,1.45-0.42,1.45-0.97
		c0-1.68-5.32-0.61-5.32-4.06c0-1.56,1.39-2.82,3.72-2.82c2.28,0,3.66,1.24,3.79,3.11h-2.28c-0.07-0.73-0.65-1.22-1.58-1.22
		c-0.88,0-1.34,0.36-1.34,0.9c0,1.72,5.22,0.65,5.29,4.1C191.37,139.31,189.96,140.54,187.67,140.54z"/>
	<path class="st0" d="M195.06,132.92h-1.12v-1.96h1.12v-2.33h2.4v2.33h2.11v1.96h-2.11v4.56c0,0.63,0.26,0.9,1,0.9h1.11v2.01h-1.5
		c-1.8,0-3.01-0.76-3.01-2.92V132.92z"/>
	<path class="st0" d="M206.76,140.54c-2.74,0-4.73-1.9-4.73-4.86c0-2.97,1.94-4.86,4.73-4.86c2.72,0,4.64,1.85,4.64,4.66
		c0,0.31-0.02,0.61-0.07,0.92h-6.88c0.12,1.39,1.07,2.18,2.26,2.18c1.02,0,1.58-0.51,1.89-1.14h2.57
		C210.65,139.16,209.09,140.54,206.76,140.54z M204.46,134.79h4.47c-0.03-1.24-1.02-2.02-2.24-2.02
		C205.55,132.77,204.65,133.5,204.46,134.79z"/>
	<path class="st0" d="M214.49,127.81h2.38v12.58h-2.38V127.81z"/>
	<path class="st0" d="M220.32,128.45c0-0.78,0.61-1.39,1.46-1.39c0.83,0,1.46,0.61,1.46,1.39c0,0.78-0.63,1.39-1.46,1.39
		C220.94,129.85,220.32,129.23,220.32,128.45z M220.58,130.97h2.38v9.42h-2.38V130.97z"/>
	<path class="st0" d="M229.04,130.97v10.96c0,2.18-1.17,2.94-2.99,2.94H225v-2.02h0.68c0.73,0,0.99-0.27,0.99-0.9v-10.98H229.04z
		 M226.39,128.45c0-0.78,0.61-1.39,1.48-1.39c0.83,0,1.45,0.61,1.45,1.39c0,0.78-0.61,1.39-1.45,1.39
		C227,129.85,226.39,129.23,226.39,128.45z"/>
	<path class="st0" d="M232.75,127.81h2.38v7.16l3.16-3.99h3.09l-4.15,4.73l4.18,4.69h-3.09l-3.2-4.01v4.01h-2.38V127.81z"/>
	<path class="st0" d="M248.15,140.54c-2.74,0-4.72-1.9-4.72-4.86c0-2.97,1.94-4.86,4.72-4.86c2.72,0,4.64,1.85,4.64,4.66
		c0,0.31-0.02,0.61-0.07,0.92h-6.88c0.12,1.39,1.07,2.18,2.26,2.18c1.02,0,1.58-0.51,1.89-1.14h2.57
		C252.04,139.16,250.48,140.54,248.15,140.54z M245.86,134.79h4.47c-0.03-1.24-1.02-2.02-2.24-2.02
		C246.94,132.77,246.04,133.5,245.86,134.79z"/>
	<path class="st0" d="M266.78,130.81c2.41,0,4.3,1.89,4.3,4.83c0,2.94-1.89,4.9-4.3,4.9c-1.48,0-2.53-0.68-3.11-1.5v1.34h-2.38
		v-12.58h2.38v4.54C264.25,131.48,265.36,130.81,266.78,130.81z M266.15,132.91c-1.27,0-2.48,0.99-2.48,2.77
		c0,1.79,1.21,2.77,2.48,2.77c1.29,0,2.5-1.02,2.5-2.8C268.65,133.86,267.45,132.91,266.15,132.91z"/>
	<path class="st0" d="M278.36,140.54c-2.72,0-4.78-1.9-4.78-4.86c0-2.97,2.13-4.86,4.84-4.86s4.84,1.89,4.84,4.86
		C283.27,138.63,281.1,140.54,278.36,140.54z M278.36,138.46c1.26,0,2.46-0.92,2.46-2.79c0-1.89-1.17-2.79-2.43-2.79
		s-2.4,0.9-2.4,2.79C276,137.55,277.09,138.46,278.36,138.46z"/>
	<path class="st0" d="M290.5,140.54c-2.74,0-4.73-1.9-4.73-4.86c0-2.97,1.94-4.86,4.73-4.86c2.72,0,4.64,1.85,4.64,4.66
		c0,0.31-0.02,0.61-0.07,0.92h-6.88c0.12,1.39,1.07,2.18,2.26,2.18c1.02,0,1.58-0.51,1.89-1.14h2.57
		C294.39,139.16,292.83,140.54,290.5,140.54z M288.2,134.79h4.47c-0.03-1.24-1.02-2.02-2.24-2.02
		C289.29,132.77,288.39,133.5,288.2,134.79z"/>
	<path class="st0" d="M298.23,127.81h2.38v7.16l3.16-3.99h3.09l-4.15,4.73l4.18,4.69h-3.09l-3.2-4.01v4.01h-2.38V127.81z"/>
	<path class="st0" d="M308.47,130.97h2.41l1.67,7.17l1.8-7.17h2.52l1.77,7.16l1.67-7.16h2.28l-2.75,9.42h-2.57l-1.72-6.58
		l-1.72,6.58h-2.58L308.47,130.97z"/>
	<path class="st0" d="M324.97,128.45c0-0.78,0.61-1.39,1.46-1.39c0.83,0,1.46,0.61,1.46,1.39c0,0.78-0.63,1.39-1.46,1.39
		C325.59,129.85,324.97,129.23,324.97,128.45z M325.23,130.97h2.38v9.42h-2.38V130.97z"/>
	<path class="st0" d="M337.91,135.18c0-1.51-0.83-2.33-2.09-2.33c-1.29,0-2.13,0.82-2.13,2.33v5.2h-2.38v-9.42h2.38v1.17
		c0.61-0.8,1.63-1.31,2.84-1.31c2.19,0,3.76,1.43,3.76,4.03v5.52h-2.38V135.18z"/>
	<path class="st0" d="M343.91,127.81h2.38v7.16l3.16-3.99h3.09l-4.15,4.73l4.18,4.69h-3.09l-3.2-4.01v4.01h-2.38V127.81z"/>
	<path class="st0" d="M359.31,140.54c-2.74,0-4.73-1.9-4.73-4.86c0-2.97,1.94-4.86,4.73-4.86c2.72,0,4.64,1.85,4.64,4.66
		c0,0.31-0.02,0.61-0.07,0.92H357c0.12,1.39,1.07,2.18,2.26,2.18c1.02,0,1.58-0.51,1.89-1.14h2.57
		C363.21,139.16,361.64,140.54,359.31,140.54z M357.02,134.79h4.47c-0.03-1.24-1.02-2.02-2.24-2.02
		C358.11,132.77,357.21,133.5,357.02,134.79z"/>
	<path class="st0" d="M367.05,127.81h2.38v12.58h-2.38V127.81z"/>
</g>
<g>
	<g>
		<path class="st0" d="M114.08,127.67c-17.52,13.05-41.61,17.76-66.42,8.2c-16.34-6.3-29.34-19.28-35.63-35.62
			C-6.47,52.21,26.37,6.77,71.94,6.77c0,0,3.54-0.01,3.54-3.39S71.82,0,71.82,0C21.71,0-14.51,49.92,5.71,102.75
			c6.95,18.17,21.44,32.59,39.62,39.51c27.2,10.35,53.6,5.15,72.81-9.17c1.65-1.23,1.79-3.64,0.34-5.1h0
			C117.29,126.81,115.42,126.67,114.08,127.67z"/>
	</g>
</g>
</svg>
